<svg width="237" height="71" viewBox="0 0 237 71" fill="none" xmlns="http://www.w3.org/2000/svg">
<rect width="237" height="71" rx="10" fill="black" style="fill:black;fill-opacity:1;"/>
<path d="M70.4141 47.3672H80.8281C84.4395 47.3672 87.3672 44.4395 87.3672 40.8281V30.4141C87.3672 26.8026 84.4395 23.875 80.8281 23.875L70.4141 23.875C66.8026 23.875 63.875 26.8026 63.875 30.4141V40.8281C63.875 44.4395 66.8026 47.3672 70.4141 47.3672Z" stroke="white" style="stroke:white;stroke-opacity:1;" stroke-width="2"/>
<path d="M75.7422 28.9609V35.2578M80.8281 28.9609V38.6484M70.6562 28.9609V41.3125" stroke="white" style="stroke:white;stroke-opacity:1;" stroke-width="2" stroke-linecap="round"/>
<path d="M105.004 27.594V36.614L112.088 27.594H114.662L109.338 34.348L114.75 43.5H112.242L107.908 36.174L105.004 39.848V43.5H102.848V27.594H105.004ZM119.456 43.764C117.146 43.764 115.782 42.466 115.782 40.508C115.782 38.528 117.256 37.296 119.786 37.098L123.174 36.834V36.526C123.174 34.722 122.096 34.084 120.644 34.084C118.906 34.084 117.916 34.854 117.916 36.152H116.112C116.112 33.908 117.96 32.434 120.732 32.434C123.394 32.434 125.198 33.842 125.198 36.746V43.5H123.438L123.218 41.762C122.668 42.994 121.194 43.764 119.456 43.764ZM120.05 42.158C122.008 42.158 123.196 40.882 123.196 38.858V38.286L120.446 38.506C118.62 38.682 117.872 39.386 117.872 40.442C117.872 41.586 118.708 42.158 120.05 42.158ZM130.13 43.5H128.062V32.742H129.932L130.152 34.392C130.834 33.16 132.198 32.434 133.716 32.434C136.554 32.434 137.852 34.172 137.852 36.922V43.5H135.784V37.384C135.784 35.206 134.772 34.326 133.188 34.326C131.252 34.326 130.13 35.712 130.13 37.802V43.5ZM142.587 43.5H140.717V27.308H142.785V34.59C143.489 33.182 144.941 32.434 146.701 32.434C149.781 32.434 151.629 34.854 151.629 38.176C151.629 41.432 149.693 43.764 146.569 43.764C144.875 43.764 143.445 43.016 142.741 41.542L142.587 43.5ZM142.807 38.088C142.807 40.332 144.083 41.894 146.195 41.894C148.307 41.894 149.561 40.31 149.561 38.088C149.561 35.888 148.307 34.304 146.195 34.304C144.083 34.304 142.807 35.888 142.807 38.088ZM157.054 43.764C154.744 43.764 153.38 42.466 153.38 40.508C153.38 38.528 154.854 37.296 157.384 37.098L160.772 36.834V36.526C160.772 34.722 159.694 34.084 158.242 34.084C156.504 34.084 155.514 34.854 155.514 36.152H153.71C153.71 33.908 155.558 32.434 158.33 32.434C160.992 32.434 162.796 33.842 162.796 36.746V43.5H161.036L160.816 41.762C160.266 42.994 158.792 43.764 157.054 43.764ZM157.648 42.158C159.606 42.158 160.794 40.882 160.794 38.858V38.286L158.044 38.506C156.218 38.682 155.47 39.386 155.47 40.442C155.47 41.586 156.306 42.158 157.648 42.158ZM167.728 43.5H165.66V32.742H167.53L167.75 34.392C168.432 33.16 169.796 32.434 171.314 32.434C174.152 32.434 175.45 34.172 175.45 36.922V43.5H173.382V37.384C173.382 35.206 172.37 34.326 170.786 34.326C168.85 34.326 167.728 35.712 167.728 37.802V43.5Z" fill="white" style="fill:white;fill-opacity:1;"/>
</svg>
