<svg width="422" height="180" viewBox="0 0 422 180" fill="none" xmlns="http://www.w3.org/2000/svg">
<g filter="url(#filter0_d_1406_2174)">
<rect x="20" y="16" width="382" height="140" rx="20" fill="black" style="fill:black;fill-opacity:1;" shape-rendering="crispEdges"/>
<path d="M52.508 67H50.264L56.072 51.094H58.47L64.3 67H62.034L60.604 63.04H53.916L52.508 67ZM56.996 54.526L54.576 61.17H59.966L57.524 54.526C57.414 54.218 57.304 53.844 57.26 53.602C57.216 53.822 57.106 54.196 56.996 54.526ZM66.0624 71.818V56.242H67.9324L68.0864 58.178C68.8124 56.704 70.2644 55.934 71.9804 55.934C75.0604 55.934 76.9744 58.244 76.9744 61.544C76.9744 64.822 75.1704 67.286 71.9804 67.286C70.2644 67.286 68.8344 66.56 68.1304 65.24V71.818H66.0624ZM68.1524 61.632C68.1524 63.832 69.4284 65.416 71.5404 65.416C73.6524 65.416 74.9064 63.832 74.9064 61.632C74.9064 59.41 73.6524 57.826 71.5404 57.826C69.4284 57.826 68.1524 59.388 68.1524 61.632ZM79.2538 71.818V56.242H81.1238L81.2778 58.178C82.0038 56.704 83.4558 55.934 85.1718 55.934C88.2518 55.934 90.1658 58.244 90.1658 61.544C90.1658 64.822 88.3618 67.286 85.1718 67.286C83.4558 67.286 82.0258 66.56 81.3218 65.24V71.818H79.2538ZM81.3438 61.632C81.3438 63.832 82.6198 65.416 84.7318 65.416C86.8438 65.416 88.0978 63.832 88.0978 61.632C88.0978 59.41 86.8438 57.826 84.7318 57.826C82.6198 57.826 81.3438 59.388 81.3438 61.632ZM98.6052 56.154V58.046H97.6812C95.7232 58.046 94.5132 59.234 94.5132 61.302V67H92.4452V56.264H94.3812L94.5132 57.892C94.9532 56.77 96.0312 56.022 97.5052 56.022C97.8792 56.022 98.1872 56.066 98.6052 56.154ZM99.4541 61.61C99.4541 58.288 101.83 55.956 105.064 55.956C108.276 55.956 110.652 58.288 110.652 61.61C110.652 64.932 108.276 67.264 105.064 67.264C101.83 67.264 99.4541 64.932 99.4541 61.61ZM101.544 61.61C101.544 63.854 102.974 65.416 105.064 65.416C107.132 65.416 108.584 63.854 108.584 61.61C108.584 59.366 107.132 57.804 105.064 57.804C102.974 57.804 101.544 59.366 101.544 61.61ZM115.461 67L111.127 56.242H113.327L115.681 62.248C116.055 63.26 116.363 64.162 116.539 64.822C116.715 64.118 117.067 63.194 117.441 62.248L119.839 56.242H121.995L117.507 67H115.461ZM126.292 67.264C123.982 67.264 122.618 65.966 122.618 64.008C122.618 62.028 124.092 60.796 126.622 60.598L130.01 60.334V60.026C130.01 58.222 128.932 57.584 127.48 57.584C125.742 57.584 124.752 58.354 124.752 59.652H122.948C122.948 57.408 124.796 55.934 127.568 55.934C130.23 55.934 132.034 57.342 132.034 60.246V67H130.274L130.054 65.262C129.504 66.494 128.03 67.264 126.292 67.264ZM126.886 65.658C128.844 65.658 130.032 64.382 130.032 62.358V61.786L127.282 62.006C125.456 62.182 124.708 62.886 124.708 63.942C124.708 65.086 125.544 65.658 126.886 65.658ZM137.01 67H134.942V50.808H137.01V67ZM139.175 63.876H141.155C141.155 64.976 141.991 65.636 143.355 65.636C144.807 65.636 145.643 65.042 145.643 64.052C145.643 63.326 145.291 62.886 144.169 62.6L142.277 62.16C140.363 61.698 139.461 60.752 139.461 59.168C139.461 57.188 141.133 55.934 143.509 55.934C145.863 55.934 147.403 57.254 147.447 59.3H145.467C145.423 58.222 144.697 57.54 143.443 57.54C142.145 57.54 141.419 58.112 141.419 59.102C141.419 59.828 141.947 60.312 143.003 60.576L144.895 61.038C146.721 61.478 147.623 62.314 147.623 63.92C147.623 65.966 145.863 67.264 143.311 67.264C140.781 67.264 139.175 65.922 139.175 63.876Z" fill="white" style="fill:white;fill-opacity:1;"/>
<path d="M50.192 85.6V84.544H58.4V85.6H54.864V96H53.712V85.6H50.192ZM62.8406 88.16V89.152H62.2326C60.8086 89.152 59.8966 90.112 59.8966 91.584V96H58.7926V88.256H59.8326L59.9126 89.456C60.2166 88.624 61.0326 88.08 62.1206 88.08C62.3606 88.08 62.5686 88.096 62.8406 88.16ZM66.2198 96.192C64.5718 96.192 63.5958 95.264 63.5958 93.904C63.5958 92.48 64.6838 91.584 66.4918 91.44L69.0518 91.232V90.976C69.0518 89.456 68.1398 88.976 67.0038 88.976C65.6598 88.976 64.8598 89.584 64.8598 90.624H63.8518C63.8518 89.056 65.1318 88.048 67.0358 88.048C68.8278 88.048 70.1398 88.944 70.1398 90.992V96H69.2118L69.0678 94.64C68.5878 95.616 67.5318 96.192 66.2198 96.192ZM66.4758 95.296C68.1078 95.296 69.0518 94.16 69.0518 92.48V92.064L66.7638 92.24C65.3078 92.368 64.7158 93.008 64.7158 93.872C64.7158 94.816 65.4198 95.296 66.4758 95.296ZM71.8111 92.144C71.8111 89.712 73.2991 88.048 75.5551 88.048C77.3471 88.048 78.6591 89.088 78.9631 90.688H77.8591C77.5711 89.616 76.6431 89.024 75.5711 89.024C74.0031 89.024 72.8991 90.224 72.8991 92.128C72.8991 93.968 73.9231 95.2 75.4911 95.2C76.6431 95.2 77.5711 94.56 77.8751 93.568H78.9951C78.6271 95.152 77.2511 96.192 75.4911 96.192C73.2991 96.192 71.8111 94.576 71.8111 92.144ZM81.8196 96H80.7156V84.336H81.8196V92.256L85.6596 88.256H87.0516L84.0756 91.344L87.0676 96H85.7876L83.3236 92.128L81.8196 93.68V96ZM95.0479 96.192C93.3999 96.192 92.4239 95.264 92.4239 93.904C92.4239 92.48 93.5119 91.584 95.3199 91.44L97.8799 91.232V90.976C97.8799 89.456 96.9679 88.976 95.8319 88.976C94.4879 88.976 93.6879 89.584 93.6879 90.624H92.6799C92.6799 89.056 93.9599 88.048 95.8639 88.048C97.6559 88.048 98.9679 88.944 98.9679 90.992V96H98.0399L97.8959 94.64C97.4159 95.616 96.3599 96.192 95.0479 96.192ZM95.3039 95.296C96.9359 95.296 97.8799 94.16 97.8799 92.48V92.064L95.5919 92.24C94.1359 92.368 93.5439 93.008 93.5439 93.872C93.5439 94.816 94.2479 95.296 95.3039 95.296ZM101.183 99.376V88.256H102.143L102.255 89.824C102.799 88.624 103.887 88.048 105.183 88.048C107.423 88.048 108.767 89.76 108.767 92.096C108.767 94.432 107.471 96.192 105.183 96.192C103.871 96.192 102.831 95.632 102.287 94.512V99.376H101.183ZM102.303 92.128C102.303 93.904 103.295 95.2 104.991 95.2C106.671 95.2 107.647 93.904 107.647 92.128C107.647 90.336 106.671 89.056 104.991 89.056C103.295 89.056 102.303 90.336 102.303 92.128ZM110.527 99.376V88.256H111.487L111.599 89.824C112.143 88.624 113.231 88.048 114.527 88.048C116.767 88.048 118.111 89.76 118.111 92.096C118.111 94.432 116.815 96.192 114.527 96.192C113.215 96.192 112.175 95.632 111.631 94.512V99.376H110.527ZM111.647 92.128C111.647 93.904 112.639 95.2 114.335 95.2C116.015 95.2 116.991 93.904 116.991 92.128C116.991 90.336 116.015 89.056 114.335 89.056C112.639 89.056 111.647 90.336 111.647 92.128ZM123.919 88.16V89.152H123.311C121.887 89.152 120.975 90.112 120.975 91.584V96H119.871V88.256H120.911L120.991 89.456C121.295 88.624 122.111 88.08 123.199 88.08C123.439 88.08 123.647 88.096 123.919 88.16ZM124.546 92.128C124.546 89.76 126.21 88.048 128.482 88.048C130.754 88.048 132.418 89.76 132.418 92.128C132.418 94.48 130.754 96.192 128.482 96.192C126.21 96.192 124.546 94.48 124.546 92.128ZM125.666 92.112C125.666 93.936 126.818 95.2 128.482 95.2C130.13 95.2 131.298 93.936 131.298 92.112C131.298 90.32 130.13 89.04 128.482 89.04C126.818 89.04 125.666 90.32 125.666 92.112ZM136 96L132.832 88.256H134.016L136.016 93.248C136.224 93.808 136.432 94.336 136.576 94.848C136.72 94.32 136.928 93.808 137.152 93.248L139.184 88.256H140.32L137.104 96H136ZM143.501 96.192C141.853 96.192 140.877 95.264 140.877 93.904C140.877 92.48 141.965 91.584 143.773 91.44L146.333 91.232V90.976C146.333 89.456 145.421 88.976 144.285 88.976C142.941 88.976 142.141 89.584 142.141 90.624H141.133C141.133 89.056 142.413 88.048 144.317 88.048C146.109 88.048 147.421 88.944 147.421 90.992V96H146.493L146.349 94.64C145.869 95.616 144.813 96.192 143.501 96.192ZM143.757 95.296C145.389 95.296 146.333 94.16 146.333 92.48V92.064L144.045 92.24C142.589 92.368 141.997 93.008 141.997 93.872C141.997 94.816 142.701 95.296 143.757 95.296ZM150.788 96H149.684V84.336H150.788V96ZM159.35 96H158.262V89.184H156.71V88.256H158.262V85.808H159.35V88.256H160.902V89.184H159.35V96ZM164.439 96.192C162.791 96.192 161.815 95.264 161.815 93.904C161.815 92.48 162.903 91.584 164.711 91.44L167.271 91.232V90.976C167.271 89.456 166.359 88.976 165.223 88.976C163.879 88.976 163.079 89.584 163.079 90.624H162.071C162.071 89.056 163.351 88.048 165.255 88.048C167.047 88.048 168.359 88.944 168.359 90.992V96H167.431L167.287 94.64C166.807 95.616 165.751 96.192 164.439 96.192ZM164.695 95.296C166.327 95.296 167.271 94.16 167.271 92.48V92.064L164.983 92.24C163.527 92.368 162.935 93.008 162.935 93.872C162.935 94.816 163.639 95.296 164.695 95.296ZM169.918 93.824H170.974C170.974 94.72 171.646 95.28 172.734 95.28C173.934 95.28 174.638 94.768 174.638 93.936C174.638 93.296 174.318 92.928 173.406 92.704L172.078 92.368C170.734 92.032 170.078 91.328 170.078 90.272C170.078 88.912 171.214 88.048 172.878 88.048C174.51 88.048 175.566 88.944 175.614 90.384H174.542C174.51 89.488 173.886 88.96 172.846 88.96C171.758 88.96 171.15 89.424 171.15 90.256C171.15 90.848 171.566 91.264 172.414 91.472L173.742 91.808C175.086 92.144 175.694 92.768 175.694 93.888C175.694 95.28 174.51 96.192 172.75 96.192C171.006 96.192 169.918 95.264 169.918 93.824ZM178.663 96H177.559V84.336H178.663V92.256L182.503 88.256H183.895L180.919 91.344L183.911 96H182.631L180.167 92.128L178.663 93.68V96ZM184.684 93.824H185.74C185.74 94.72 186.412 95.28 187.5 95.28C188.7 95.28 189.404 94.768 189.404 93.936C189.404 93.296 189.084 92.928 188.172 92.704L186.844 92.368C185.5 92.032 184.844 91.328 184.844 90.272C184.844 88.912 185.98 88.048 187.644 88.048C189.276 88.048 190.332 88.944 190.38 90.384H189.308C189.276 89.488 188.652 88.96 187.612 88.96C186.524 88.96 185.916 89.424 185.916 90.256C185.916 90.848 186.332 91.264 187.18 91.472L188.508 91.808C189.852 92.144 190.46 92.768 190.46 93.888C190.46 95.28 189.276 96.192 187.516 96.192C185.772 96.192 184.684 95.264 184.684 93.824ZM198.939 96.192C197.291 96.192 196.315 95.264 196.315 93.904C196.315 92.48 197.403 91.584 199.211 91.44L201.771 91.232V90.976C201.771 89.456 200.859 88.976 199.723 88.976C198.379 88.976 197.579 89.584 197.579 90.624H196.571C196.571 89.056 197.851 88.048 199.755 88.048C201.547 88.048 202.859 88.944 202.859 90.992V96H201.931L201.787 94.64C201.307 95.616 200.251 96.192 198.939 96.192ZM199.195 95.296C200.827 95.296 201.771 94.16 201.771 92.48V92.064L199.483 92.24C198.027 92.368 197.435 93.008 197.435 93.872C197.435 94.816 198.139 95.296 199.195 95.296ZM206.178 96H205.074V88.256H206.034L206.194 89.6C206.706 88.608 207.73 88.048 208.85 88.048C210.978 88.048 211.858 89.312 211.858 91.264V96H210.754V91.504C210.754 89.696 209.938 89.056 208.658 89.056C207.074 89.056 206.178 90.208 206.178 91.952V96ZM217.098 96.192C214.842 96.192 213.514 94.464 213.514 92.144C213.514 89.808 214.842 88.048 217.146 88.048C218.426 88.048 219.45 88.608 219.994 89.728V84.336H221.098V96H220.138L220.026 94.416C219.482 95.616 218.394 96.192 217.098 96.192ZM217.29 95.184C218.986 95.184 219.978 93.904 219.978 92.112C219.978 90.336 218.986 89.04 217.29 89.04C215.61 89.04 214.634 90.336 214.634 92.112C214.634 93.904 215.61 95.184 217.29 95.184ZM228.992 96H227.888V84.336H228.992V92.256L232.832 88.256H234.224L231.248 91.344L234.24 96H232.96L230.496 92.128L228.992 93.68V96ZM238.541 96.192C236.269 96.192 234.749 94.56 234.749 92.128C234.749 89.712 236.253 88.048 238.461 88.048C240.557 88.048 241.981 89.536 241.981 91.728V92.272H235.821C235.901 94.16 236.893 95.248 238.557 95.248C239.821 95.248 240.637 94.704 240.925 93.68H241.981C241.565 95.312 240.365 96.192 238.541 96.192ZM238.461 88.992C237.005 88.992 236.045 89.952 235.853 91.472H240.877C240.877 89.984 239.917 88.992 238.461 88.992ZM246.994 96.192C244.722 96.192 243.202 94.56 243.202 92.128C243.202 89.712 244.706 88.048 246.914 88.048C249.01 88.048 250.434 89.536 250.434 91.728V92.272H244.274C244.354 94.16 245.346 95.248 247.01 95.248C248.274 95.248 249.09 94.704 249.378 93.68H250.434C250.018 95.312 248.818 96.192 246.994 96.192ZM246.914 88.992C245.458 88.992 244.498 89.952 244.306 91.472H249.33C249.33 89.984 248.37 88.992 246.914 88.992ZM252.199 99.376V88.256H253.159L253.271 89.824C253.815 88.624 254.903 88.048 256.199 88.048C258.439 88.048 259.783 89.76 259.783 92.096C259.783 94.432 258.487 96.192 256.199 96.192C254.887 96.192 253.847 95.632 253.303 94.512V99.376H252.199ZM253.319 92.128C253.319 93.904 254.311 95.2 256.007 95.2C257.687 95.2 258.663 93.904 258.663 92.128C258.663 90.336 257.687 89.056 256.007 89.056C254.311 89.056 253.319 90.336 253.319 92.128ZM265.324 93.824H266.38C266.38 94.72 267.052 95.28 268.14 95.28C269.34 95.28 270.044 94.768 270.044 93.936C270.044 93.296 269.724 92.928 268.812 92.704L267.484 92.368C266.14 92.032 265.484 91.328 265.484 90.272C265.484 88.912 266.62 88.048 268.284 88.048C269.916 88.048 270.972 88.944 271.02 90.384H269.948C269.916 89.488 269.292 88.96 268.252 88.96C267.164 88.96 266.556 89.424 266.556 90.256C266.556 90.848 266.972 91.264 267.82 91.472L269.148 91.808C270.492 92.144 271.1 92.768 271.1 93.888C271.1 95.28 269.916 96.192 268.156 96.192C266.412 96.192 265.324 95.264 265.324 93.824ZM274.694 96H273.606V89.184H272.054V88.256H273.606V85.808H274.694V88.256H276.246V89.184H274.694V96ZM279.782 96.192C278.134 96.192 277.158 95.264 277.158 93.904C277.158 92.48 278.246 91.584 280.054 91.44L282.614 91.232V90.976C282.614 89.456 281.702 88.976 280.566 88.976C279.222 88.976 278.422 89.584 278.422 90.624H277.414C277.414 89.056 278.694 88.048 280.598 88.048C282.39 88.048 283.702 88.944 283.702 90.992V96H282.774L282.63 94.64C282.15 95.616 281.094 96.192 279.782 96.192ZM280.038 95.296C281.67 95.296 282.614 94.16 282.614 92.48V92.064L280.326 92.24C278.87 92.368 278.278 93.008 278.278 93.872C278.278 94.816 278.982 95.296 280.038 95.296ZM287.07 96H285.966V84.336H287.07V92.256L290.91 88.256H292.302L289.326 91.344L292.318 96H291.038L288.574 92.128L287.07 93.68V96ZM296.619 96.192C294.347 96.192 292.827 94.56 292.827 92.128C292.827 89.712 294.331 88.048 296.539 88.048C298.635 88.048 300.059 89.536 300.059 91.728V92.272H293.899C293.979 94.16 294.971 95.248 296.635 95.248C297.899 95.248 298.715 94.704 299.003 93.68H300.059C299.643 95.312 298.443 96.192 296.619 96.192ZM296.539 88.992C295.083 88.992 294.123 89.952 293.931 91.472H298.955C298.955 89.984 297.995 88.992 296.539 88.992ZM302.928 95.984H301.824V84.336H302.928V89.6C303.424 88.672 304.368 88.048 305.664 88.048C307.696 88.048 308.608 89.312 308.608 91.264V96H307.504V91.504C307.504 89.696 306.656 89.056 305.456 89.056C303.792 89.056 302.928 90.288 302.928 91.776V95.984ZM310.264 92.128C310.264 89.76 311.928 88.048 314.2 88.048C316.472 88.048 318.136 89.76 318.136 92.128C318.136 94.48 316.472 96.192 314.2 96.192C311.928 96.192 310.264 94.48 310.264 92.128ZM311.384 92.112C311.384 93.936 312.536 95.2 314.2 95.2C315.848 95.2 317.016 93.936 317.016 92.112C317.016 90.32 315.848 89.04 314.2 89.04C312.536 89.04 311.384 90.32 311.384 92.112ZM321.054 96H319.95V84.336H321.054V96ZM326.442 96.192C324.186 96.192 322.858 94.464 322.858 92.144C322.858 89.808 324.186 88.048 326.49 88.048C327.77 88.048 328.794 88.608 329.338 89.728V84.336H330.442V96H329.482L329.37 94.416C328.826 95.616 327.738 96.192 326.442 96.192ZM326.634 95.184C328.33 95.184 329.322 93.904 329.322 92.112C329.322 90.336 328.33 89.04 326.634 89.04C324.954 89.04 323.978 90.336 323.978 92.112C323.978 93.904 324.954 95.184 326.634 95.184ZM335.994 96.192C333.722 96.192 332.202 94.56 332.202 92.128C332.202 89.712 333.706 88.048 335.914 88.048C338.01 88.048 339.434 89.536 339.434 91.728V92.272H333.274C333.354 94.16 334.346 95.248 336.01 95.248C337.274 95.248 338.09 94.704 338.378 93.68H339.434C339.018 95.312 337.818 96.192 335.994 96.192ZM335.914 88.992C334.458 88.992 333.498 89.952 333.306 91.472H338.33C338.33 89.984 337.37 88.992 335.914 88.992ZM345.247 88.16V89.152H344.639C343.215 89.152 342.303 90.112 342.303 91.584V96H341.199V88.256H342.239L342.319 89.456C342.623 88.624 343.439 88.08 344.527 88.08C344.767 88.08 344.975 88.096 345.247 88.16ZM346.059 93.824H347.115C347.115 94.72 347.787 95.28 348.875 95.28C350.075 95.28 350.779 94.768 350.779 93.936C350.779 93.296 350.459 92.928 349.547 92.704L348.219 92.368C346.875 92.032 346.219 91.328 346.219 90.272C346.219 88.912 347.355 88.048 349.019 88.048C350.651 88.048 351.707 88.944 351.755 90.384H350.683C350.651 89.488 350.027 88.96 348.987 88.96C347.899 88.96 347.291 89.424 347.291 90.256C347.291 90.848 347.707 91.264 348.555 91.472L349.883 91.808C351.227 92.144 351.835 92.768 351.835 93.888C351.835 95.28 350.651 96.192 348.891 96.192C347.147 96.192 346.059 95.264 346.059 93.824ZM56.592 112.256H57.696V120H56.736L56.592 118.688C56.16 119.584 55.088 120.192 53.872 120.192C52.048 120.192 51.056 118.944 51.056 117.056V112.24H52.176V116.704C52.176 118.544 52.992 119.2 54.224 119.2C55.712 119.2 56.592 118.208 56.592 116.368V112.256ZM59.9958 123.376V112.256H60.9557L61.0678 113.824C61.6118 112.624 62.6998 112.048 63.9958 112.048C66.2358 112.048 67.5798 113.76 67.5798 116.096C67.5798 118.432 66.2838 120.192 63.9958 120.192C62.6838 120.192 61.6438 119.632 61.0998 118.512V123.376H59.9958ZM61.1158 116.128C61.1158 117.904 62.1078 119.2 63.8038 119.2C65.4838 119.2 66.4598 117.904 66.4598 116.128C66.4598 114.336 65.4838 113.056 63.8038 113.056C62.1078 113.056 61.1158 114.336 61.1158 116.128ZM72.3795 120.192C70.1235 120.192 68.7955 118.464 68.7955 116.144C68.7955 113.808 70.1235 112.048 72.4275 112.048C73.7075 112.048 74.7315 112.608 75.2755 113.728V108.336H76.3795V120H75.4195L75.3075 118.416C74.7635 119.616 73.6755 120.192 72.3795 120.192ZM72.5715 119.184C74.2675 119.184 75.2595 117.904 75.2595 116.112C75.2595 114.336 74.2675 113.04 72.5715 113.04C70.8915 113.04 69.9155 114.336 69.9155 116.112C69.9155 117.904 70.8915 119.184 72.5715 119.184ZM80.9073 120.192C79.2593 120.192 78.2833 119.264 78.2833 117.904C78.2833 116.48 79.3713 115.584 81.1793 115.44L83.7393 115.232V114.976C83.7393 113.456 82.8273 112.976 81.6913 112.976C80.3473 112.976 79.5473 113.584 79.5473 114.624H78.5393C78.5393 113.056 79.8193 112.048 81.7233 112.048C83.5153 112.048 84.8273 112.944 84.8273 114.992V120H83.8993L83.7553 118.64C83.2753 119.616 82.2193 120.192 80.9073 120.192ZM81.1633 119.296C82.7953 119.296 83.7393 118.16 83.7393 116.48V116.064L81.4513 116.24C79.9953 116.368 79.4033 117.008 79.4033 117.872C79.4033 118.816 80.1073 119.296 81.1633 119.296ZM88.678 120H87.59V113.184H86.038V112.256H87.59V109.808H88.678V112.256H90.23V113.184H88.678V120ZM94.8375 120.192C92.5655 120.192 91.0455 118.56 91.0455 116.128C91.0455 113.712 92.5495 112.048 94.7575 112.048C96.8535 112.048 98.2775 113.536 98.2775 115.728V116.272H92.1175C92.1975 118.16 93.1895 119.248 94.8535 119.248C96.1175 119.248 96.9335 118.704 97.2215 117.68H98.2775C97.8615 119.312 96.6615 120.192 94.8375 120.192ZM94.7575 112.992C93.3015 112.992 92.3415 113.952 92.1495 115.472H97.1735C97.1735 113.984 96.2135 112.992 94.7575 112.992ZM103.083 120.192C100.827 120.192 99.4986 118.464 99.4986 116.144C99.4986 113.808 100.827 112.048 103.131 112.048C104.411 112.048 105.435 112.608 105.979 113.728V108.336H107.083V120H106.123L106.011 118.416C105.467 119.616 104.379 120.192 103.083 120.192ZM103.275 119.184C104.971 119.184 105.963 117.904 105.963 116.112C105.963 114.336 104.971 113.04 103.275 113.04C101.595 113.04 100.619 114.336 100.619 116.112C100.619 117.904 101.595 119.184 103.275 119.184ZM114.368 110.128C113.92 110.128 113.552 109.76 113.552 109.312C113.552 108.864 113.92 108.48 114.368 108.48C114.816 108.48 115.2 108.864 115.2 109.312C115.2 109.76 114.816 110.128 114.368 110.128ZM113.824 120V112.256H114.928V120H113.824ZM118.334 120H117.23V112.256H118.19L118.35 113.6C118.862 112.608 119.886 112.048 121.006 112.048C123.134 112.048 124.014 113.312 124.014 115.264V120H122.91V115.504C122.91 113.696 122.094 113.056 120.814 113.056C119.23 113.056 118.334 114.208 118.334 115.952V120ZM130.108 116.128C130.108 113.76 131.772 112.048 134.044 112.048C136.316 112.048 137.98 113.76 137.98 116.128C137.98 118.48 136.316 120.192 134.044 120.192C131.772 120.192 130.108 118.48 130.108 116.128ZM131.228 116.112C131.228 117.936 132.38 119.2 134.044 119.2C135.692 119.2 136.86 117.936 136.86 116.112C136.86 114.32 135.692 113.04 134.044 113.04C132.38 113.04 131.228 114.32 131.228 116.112ZM140.85 120H139.746V112.256H140.706L140.866 113.6C141.378 112.608 142.402 112.048 143.522 112.048C145.65 112.048 146.53 113.312 146.53 115.264V120H145.426V115.504C145.426 113.696 144.61 113.056 143.33 113.056C141.746 113.056 140.85 114.208 140.85 115.952V120ZM151.978 120.192C149.706 120.192 148.186 118.56 148.186 116.128C148.186 113.712 149.69 112.048 151.898 112.048C153.994 112.048 155.418 113.536 155.418 115.728V116.272H149.258C149.338 118.16 150.33 119.248 151.994 119.248C153.258 119.248 154.074 118.704 154.362 117.68H155.418C155.002 119.312 153.802 120.192 151.978 120.192ZM151.898 112.992C150.442 112.992 149.482 113.952 149.29 115.472H154.314C154.314 113.984 153.354 112.992 151.898 112.992ZM161.621 123.376V112.256H162.581L162.693 113.824C163.237 112.624 164.325 112.048 165.621 112.048C167.861 112.048 169.205 113.76 169.205 116.096C169.205 118.432 167.909 120.192 165.621 120.192C164.309 120.192 163.269 119.632 162.725 118.512V123.376H161.621ZM162.741 116.128C162.741 117.904 163.733 119.2 165.429 119.2C167.109 119.2 168.085 117.904 168.085 116.128C168.085 114.336 167.109 113.056 165.429 113.056C163.733 113.056 162.741 114.336 162.741 116.128ZM172.117 120H171.013V108.336H172.117V120ZM176.689 120.192C175.041 120.192 174.065 119.264 174.065 117.904C174.065 116.48 175.153 115.584 176.961 115.44L179.521 115.232V114.976C179.521 113.456 178.609 112.976 177.473 112.976C176.129 112.976 175.329 113.584 175.329 114.624H174.321C174.321 113.056 175.601 112.048 177.505 112.048C179.297 112.048 180.609 112.944 180.609 114.992V120H179.681L179.537 118.64C179.057 119.616 178.001 120.192 176.689 120.192ZM176.945 119.296C178.577 119.296 179.521 118.16 179.521 116.48V116.064L177.233 116.24C175.777 116.368 175.185 117.008 175.185 117.872C175.185 118.816 175.889 119.296 176.945 119.296ZM182.28 116.144C182.28 113.712 183.768 112.048 186.024 112.048C187.816 112.048 189.128 113.088 189.432 114.688H188.328C188.04 113.616 187.112 113.024 186.04 113.024C184.472 113.024 183.368 114.224 183.368 116.128C183.368 117.968 184.392 119.2 185.96 119.2C187.112 119.2 188.04 118.56 188.344 117.568H189.464C189.096 119.152 187.72 120.192 185.96 120.192C183.768 120.192 182.28 118.576 182.28 116.144ZM194.384 120.192C192.112 120.192 190.592 118.56 190.592 116.128C190.592 113.712 192.096 112.048 194.304 112.048C196.4 112.048 197.824 113.536 197.824 115.728V116.272H191.664C191.744 118.16 192.736 119.248 194.4 119.248C195.664 119.248 196.48 118.704 196.768 117.68H197.824C197.408 119.312 196.208 120.192 194.384 120.192ZM194.304 112.992C192.848 112.992 191.888 113.952 191.696 115.472H196.72C196.72 113.984 195.76 112.992 194.304 112.992ZM200.049 120.176C199.505 120.176 199.041 119.728 199.041 119.2C199.041 118.656 199.505 118.192 200.049 118.192C200.593 118.192 201.057 118.656 201.057 119.2C201.057 119.728 200.593 120.176 200.049 120.176Z" fill="#717579" style="fill:#717579;fill:color(display-p3 0.4431 0.4588 0.4745);fill-opacity:1;"/>
</g>
<defs>
<filter id="filter0_d_1406_2174" x="0" y="0" width="422" height="180" filterUnits="userSpaceOnUse" color-interpolation-filters="sRGB">
<feFlood flood-opacity="0" result="BackgroundImageFix"/>
<feColorMatrix in="SourceAlpha" type="matrix" values="0 0 0 0 0 0 0 0 0 0 0 0 0 0 0 0 0 0 127 0" result="hardAlpha"/>
<feOffset dy="4"/>
<feGaussianBlur stdDeviation="10"/>
<feComposite in2="hardAlpha" operator="out"/>
<feColorMatrix type="matrix" values="0 0 0 0 0 0 0 0 0 0 0 0 0 0 0 0 0 0 0.25 0"/>
<feBlend mode="normal" in2="BackgroundImageFix" result="effect1_dropShadow_1406_2174"/>
<feBlend mode="normal" in="SourceGraphic" in2="effect1_dropShadow_1406_2174" result="shape"/>
</filter>
</defs>
</svg>
